HIERARCHY
ROOT ui
{
	 OFFSET 0 0 0
	 CHANNELS 3 XPosition YPosition Z Position
	 EndSite
	 {
	 OFFSET 0 -1 0
	 }
}
ROOT li
{
	 OFFSET 0 0 0
	 CHANNELS 3 XPosition YPosition Z Position
	 EndSite
	 {
	 OFFSET 0 -1 0
	 }
}
ROOT ul
{
	 OFFSET 0 0 0
	 CHANNELS 3 XPosition YPosition Z Position
	 EndSite
	 {
	 OFFSET 0 -1 0
	 }
}
ROOT ll
{
	 OFFSET 0 0 0
	 CHANNELS 3 XPosition YPosition Z Position
	 EndSite
	 {
	 OFFSET 0 -1 0
	 }
}
ROOT tt
{
	 OFFSET 0 0 0
	 CHANNELS 3 XPosition YPosition Z Position
	 EndSite
	 {
	 OFFSET 0 -1 0
	 }
}
ROOT tb
{
	 OFFSET 0 0 0
	 CHANNELS 3 XPosition YPosition Z Position
	 EndSite
	 {
	 OFFSET 0 -1 0
	 }
}
ROOT td
{
	 OFFSET 0 0 0
	 CHANNELS 3 XPosition YPosition Z Position
	 EndSite
	 {
	 OFFSET 0 -1 0
	 }
}
ROOT v
{
	 OFFSET 0 0 0
	 CHANNELS 3 XPosition YPosition Z Position
	 EndSite
	 {
	 OFFSET 0 -1 0
	 }
}
ROOT bn
{
	 OFFSET 0 0 0
	 CHANNELS 3 XPosition YPosition Z Position
	 EndSite
	 {
	 OFFSET 0 -1 0
	 }
}
MOTION
Frames: 16
Frame Time: 0.002
-0.04516131591796875	-0.004567921161651611	0		0.5162783203125	-2.569610595703125	0		-1.1091566162109374	0.21922674560546876	0		-0.39407632446289065	-3.237034912109375	0		3.232510009765625	-0.4111161193847656	0		4.56239599609375	-0.5005896301269531	0		5.77988916015625	-0.4734913635253906	0		5.8767314453125	0.410286376953125	0		-0.2731570129394531	5.9031669921875	0		
0.022866249084472656	0.002125667095184326	0		0.5173448486328125	-2.569958251953125	0		-1.093219482421875	0.22058062744140625	0		-0.4191221923828125	-3.248072998046875	0		3.191809814453125	-0.4577408142089844	0		4.5372802734375	-0.5053515319824219	0		5.76307568359375	-0.4562980651855469	0		5.88642529296875	0.36837933349609375	0		-0.3056432189941406	5.897232421875	0		
-0.03324626541137695	0.004543355941772461	0		0.519410400390625	-2.567306396484375	0		-1.09425537109375	0.22916702270507813	0		-0.3551966552734375	-3.2593349609375	0		3.175953125	-0.5116729125976562	0		4.53125146484375	-0.4993243408203125	0		5.75105810546875	-0.44910748291015623	0		5.89416943359375	0.36818197631835936	0		-0.2721121520996094	5.90138916015625	0		
0.03438064956665039	-0.007735010147094727	0		0.5381932373046875	-2.581872314453125	0		-1.0604229736328126	0.23327317810058593	0		-0.39728790283203125	-3.2681318359375	0		3.105316650390625	-0.5448201293945313	0		4.49908984375	-0.4978936157226562	0		5.7321787109375	-0.4267654113769531	0		5.87910009765625	0.3792286071777344	0		-0.3020267333984375	5.88242138671875	0		
-0.05176227569580078	0.003098789930343628	0		0.517970703125	-2.59289306640625	0		-1.0597298583984376	0.23283395385742187	0		-0.24068789672851562	-3.29763623046875	0		3.08139599609375	-0.594584716796875	0		4.47070947265625	-0.5074789428710937	0		5.70798291015625	-0.4223047790527344	0		5.88308056640625	0.3620487365722656	0		-0.1846197967529297	5.89445166015625	0		
0.025857625961303712	7.096880078315735E-4	0		0.541745361328125	-2.6005009765625	0		-1.065041748046875	0.23747650146484375	0		-0.409589599609375	-3.28470458984375	0		3.02851318359375	-0.63693408203125	0		4.4563291015625	-0.5122218017578125	0		5.68679833984375	-0.4118443298339844	0		5.883541015625	0.36236627197265625	0		-0.20062364196777344	5.88530859375	0		
-0.04067224502563477	-0.0067235689163208006	0		0.5333340454101563	-2.617663330078125	0		-1.0594393310546875	0.24097319030761719	0		-0.334997802734375	-3.3070703125	0		3.00958251953125	-0.6787262573242188	0		4.420126953125	-0.49864312744140626	0		5.67141015625	-0.41143069458007814	0		5.8802998046875	0.34729718017578126	0		-0.35381976318359376	5.87000927734375	0		
0.034028770446777344	0.006957746982574463	0		0.5590269775390625	-2.623271484375	0		-0.98978857421875	0.2526221618652344	0		-0.3671259765625	-3.30399072265625	0		2.967572998046875	-0.7221971435546874	0		4.3905517578125	-0.5081396484375	0		5.64522607421875	-0.3908480529785156	0		5.88431787109375	0.36318170166015623	0		-0.18652572631835937	5.89541943359375	0		
-0.04959499740600586	0.001754086971282959	0		0.5556826782226563	-2.6274814453125	0		-0.9984696655273437	0.24432548522949218	0		-0.247731201171875	-3.3339169921875	0		2.943658935546875	-0.7549020385742188	0		4.3851572265625	-0.4999455261230469	0		5.62384765625	-0.3803184814453125	0		5.89596826171875	0.3477098693847656	0		-0.3360565490722656	5.8660556640625	0		
0.027783857345581055	-5.713319778442383E-4	0		0.5611299438476562	-2.64380078125	0		-1.00402880859375	0.24899563598632812	0		-0.254121337890625	-3.34315869140625	0		2.928674072265625	-0.7897217407226562	0		4.35955517578125	-0.5034814147949219	0		5.60241748046875	-0.3697859802246094	0		5.89137744140625	0.36910507202148435	0		-0.20294546508789063	5.88696484375	0		
-0.048837703704833986	0.001133247971534729	0		0.5576919555664063	-2.64799560546875	0		-1.0036939697265626	0.2485973663330078	0		-0.25750494384765626	-3.348431884765625	0		2.885747802734375	-0.817177978515625	0		4.3131748046875	-0.48675128173828125	0		5.5750615234375	-0.350183837890625	0		5.883810546875	0.3732822570800781	0		-0.37149197387695315	5.86183544921875	0		
0.02847439384460449	-0.0011612310409545897	0		0.5421924438476563	-2.6540302734375	0		-1.0743277587890625	0.25312898254394534	0		-0.26295330810546874	-3.35567138671875	0		2.8617041015625	-0.8518910522460937	0		4.29238525390625	-0.499372802734375	0		5.55942724609375	-0.3497542724609375	0		5.88405078125	0.37372393798828124	0		-0.35657510375976564	5.8713125	0		
0.04880387878417969	-7.025920152664185E-4	0		0.57275341796875	-2.653655029296875	0		-0.999922119140625	0.26079644775390626	0		-0.265379638671875	-3.3589423828125	0		2.825855712890625	-0.8704630126953125	0		4.305990234375	-0.48045236206054687	0		5.53511181640625	-0.32323513793945313	0		5.88793896484375	0.39131338500976565	0		-0.3217224426269531	5.87454443359375	0		
0.029107837677001952	-0.0017234200239181518	0		0.5562870483398438	-2.65367138671875	0		-1.0196140747070312	0.2616896057128906	0		-0.2837752685546875	-3.358001708984375	0		2.7998994140625	-0.897177734375	0		4.25243798828125	-0.472691162109375	0		5.51180029296875	-0.2957579956054687	0		5.88799267578125	0.3588017272949219	0		-0.20570628356933593	5.88775537109375	0		
0.029422229766845703	-0.0019953399896621704	0		0.5875715942382812	-2.67229541015625	0		-0.9493760375976562	0.2564499206542969	0		-0.25429754638671875	-3.3656650390625	0		2.778902587890625	-0.9269705200195313	0		4.2407509765625	-0.47549020385742186	0		5.4920751953125	-0.3003598327636719	0		5.88822021484375	0.35910614013671877	0		-0.33910708618164065	5.8671552734375	0		
-0.047250370025634765	-2.892209887504578E-4	0		0.5331080932617187	-2.668828369140625	0		-1.0240667724609376	0.258062744140625	0		-0.2748544616699219	-3.373684814453125	0		2.759113037109375	-0.9397918090820313	0		4.20512060546875	-0.47300909423828125	0		5.46770947265625	-0.275932373046875	0		5.88899462890625	0.32819686889648436	0		-0.34018099975585936	5.86887646484375	0		
